<svg width="78" height="48" viewBox="0 0 78 48" fill="none" xmlns="http://www.w3.org/2000/svg">
<g clip-path="url(#clip0_138_3)">
<path d="M62.7364 37.8378H64.9466L62.3208 45.3787C61.9807 46.3854 61.5651 47.0882 61.1118 47.4871C60.715 47.829 60.205 48 59.5627 48C58.9204 48 58.7882 47.943 58.3726 47.848V46.2905C58.7126 46.3664 59.0149 46.4234 59.2793 46.4234C59.7705 46.4234 60.1105 46.0245 60.2806 45.2268H59.6572L57.0125 37.8378H59.3549L60.9795 43.6122L62.7364 37.8378Z" fill="#07182D"/>
<path d="M46.9058 45.2268H44.6956V37.8378H46.2446L46.6035 38.6545C47.1702 37.9707 47.9259 37.6288 48.8515 37.6288C49.7772 37.6288 50.6273 37.9707 51.0806 38.6545C51.6851 37.9707 52.4974 37.6288 53.5175 37.6288C54.5376 37.6288 55.0855 37.8757 55.5389 38.3696C55.9733 38.8445 56.2 39.5283 56.2 40.44V45.2457H53.9898V40.3831C53.9898 39.6043 53.5931 39.2054 52.8186 39.2054C52.0441 39.2054 52.0441 39.3763 51.7985 39.7182C51.6285 39.9842 51.534 40.3261 51.534 40.725V45.2457H49.3238V40.3831C49.3238 39.6043 48.9271 39.2054 48.1526 39.2054C47.378 39.2054 47.4158 39.3573 47.1702 39.6803C46.9813 39.9462 46.868 40.2501 46.868 40.611V45.2268H46.9058Z" fill="#07182D"/>
<path d="M41.1818 43.0803H43.4298C43.2409 43.8591 42.8253 44.448 42.2019 44.8659C41.5785 45.2457 40.7851 45.4547 39.8028 45.4547C38.8205 45.4547 37.5737 45.0748 36.8747 44.296C36.2513 43.5932 35.9302 42.6814 35.9302 41.5607C35.9302 40.4401 36.3269 39.2244 37.1014 38.5406C37.7626 37.9517 38.6504 37.6668 39.7272 37.6668C40.804 37.6668 41.9752 38.0847 42.6175 38.9205C43.2031 39.6803 43.5054 40.744 43.5054 42.1116H38.1404C38.2726 43.3273 38.8582 43.9351 39.8972 43.9351C40.9362 43.9351 40.5017 43.8591 40.7284 43.7262C40.9551 43.5932 41.1062 43.3843 41.1629 43.1373L41.1818 43.0803ZM39.6705 39.0154C38.7827 39.0154 38.2726 39.6043 38.1404 40.782H41.2385C41.1818 39.6043 40.6529 39.0154 39.6705 39.0154Z" fill="#07182D"/>
<path d="M34.6456 45.2268H32.9265L32.5676 44.41C31.982 45.0938 31.2263 45.4357 30.3196 45.4357C29.4128 45.4357 28.3927 45.0558 27.7693 44.277C27.2215 43.5932 26.957 42.6814 26.957 41.5987C26.957 40.516 27.316 39.2624 28.0149 38.5406C28.6194 37.9327 29.3751 37.6098 30.2818 37.6098C31.1886 37.6098 31.9253 37.9137 32.4354 38.5216V34.9885H34.6456V45.2268ZM29.1673 41.5987C29.1673 42.3965 29.3373 43.0044 29.6962 43.3843C29.9796 43.6882 30.3763 43.8401 30.8674 43.8401C31.9631 43.8401 32.5298 43.0803 32.5298 41.5607C32.5298 40.0412 31.982 39.2624 30.8674 39.2624C29.7529 39.2624 29.8662 39.4903 29.5829 39.9272C29.3184 40.3261 29.1673 40.8959 29.1673 41.5987Z" fill="#07182D"/>
<path d="M21.1578 39.9652H18.8909C19.0798 39.1674 19.5143 38.5596 20.1754 38.1607C20.78 37.7998 21.5356 37.6288 22.4423 37.6288C23.3491 37.6288 24.3881 37.8947 24.9737 38.4456C25.4838 38.9205 25.7482 39.5473 25.7482 40.3451V45.2268H24.0292L23.7647 44.467C23.198 45.1128 22.3857 45.4547 21.3278 45.4547C20.2699 45.4547 19.8543 45.2268 19.382 44.7519C18.9664 44.353 18.7397 43.8021 18.7397 43.0993C18.7397 42.3965 18.9853 41.9406 19.4954 41.5797C19.9676 41.2188 20.7233 40.9529 21.7245 40.782L23.5569 40.478V40.1551C23.5569 39.4333 23.1602 39.0534 22.3857 39.0534C21.6111 39.0534 21.29 39.3573 21.1767 39.9652H21.1578ZM21.9512 43.9351C22.4612 43.9351 22.8579 43.7831 23.1602 43.4602C23.4058 43.1943 23.5191 42.8714 23.5191 42.5105V41.6937L22.2534 41.9406C21.7812 42.0356 21.4222 42.1686 21.2144 42.3395C21.0255 42.4915 20.9122 42.7194 20.9122 42.9854C20.9122 43.5932 21.2522 43.9161 21.9134 43.9161L21.9512 43.9351Z" fill="#07182D"/>
<path d="M15.5094 42.7764H17.8329C17.644 43.6502 17.2095 44.315 16.5483 44.7899C15.9249 45.2268 15.1315 45.4547 14.1492 45.4547C13.1669 45.4547 11.9012 45.0748 11.2589 44.315C10.7111 43.6692 10.4277 42.7574 10.4277 41.6177C10.4277 40.478 10.8055 39.2814 11.5801 38.5596C12.2412 37.9517 13.1102 37.6288 14.187 37.6288C15.2638 37.6288 16.0761 37.8947 16.7373 38.4076C17.304 38.8445 17.6629 39.4143 17.814 40.1171H15.4905C15.4149 39.8322 15.2449 39.5853 15.0182 39.4143C14.7915 39.2434 14.527 39.1484 14.2437 39.1484C13.2047 39.1484 12.6946 39.9842 12.6946 41.6557C12.6946 43.3273 12.8458 43.0613 13.1669 43.4792C13.4314 43.7831 13.7525 43.9541 14.1492 43.9541C14.8104 43.9541 15.2638 43.5742 15.4905 42.7954L15.5094 42.7764Z" fill="#07182D"/>
<path d="M9.91766 45.2268H7.42407L6.70622 42.8904H3.0792L2.36135 45.2268H0L3.62703 34.9885H6.27174L9.91766 45.2268ZM4.89271 36.964L3.55147 41.3328H6.21506L4.89271 36.964Z" fill="#07182D"/>
<path d="M70.6327 29.48H72.8807C73.0129 29.7649 73.1829 29.9739 73.4096 30.0689C73.6174 30.1828 73.9574 30.2398 74.3919 30.2398C75.3365 30.2398 75.8276 29.7459 75.8276 28.7582V28.1124C75.2609 28.5683 74.5997 28.8152 73.8252 28.8152C73.0507 28.8152 71.955 28.4543 71.3316 27.7515C70.7649 27.1057 70.4626 26.2509 70.4626 25.1872C70.4626 24.1235 70.8216 22.9648 71.5394 22.281C72.1439 21.7111 72.9184 21.4262 73.8441 21.4262C74.7697 21.4262 75.4309 21.7301 75.9788 22.319L76.3566 21.6351H78.019V28.6252C78.019 29.67 77.66 30.4677 76.9233 31.0376C76.281 31.5315 75.412 31.7974 74.3541 31.7974C72.125 31.7974 70.8971 31.0186 70.6516 29.48H70.6327ZM72.654 25.1682C72.654 25.89 72.824 26.4218 73.1829 26.7827C73.4663 27.0487 73.863 27.2006 74.3353 27.2006C74.8075 27.2006 75.3176 27.0107 75.6009 26.6118C75.8465 26.2699 75.9788 25.795 75.9788 25.1682C75.9788 24.5414 75.8087 23.8575 75.4687 23.4966C75.2042 23.1927 74.8075 23.0408 74.3164 23.0408C73.8252 23.0408 73.3529 23.2497 73.0507 23.6486C72.7673 24.0095 72.6351 24.5224 72.6351 25.1682H72.654Z" fill="#07182D"/>
<path d="M64.4365 29.0241H62.2263V21.6351H64.0587L64.2665 22.4519C64.7955 21.7681 65.5511 21.4262 66.5145 21.4262C67.478 21.4262 68.1202 21.7111 68.6114 22.262C69.027 22.7558 69.2537 23.4207 69.2537 24.2564V29.0241H67.0435V24.3324C67.0435 23.4397 66.6656 22.9838 65.91 22.9838C65.1544 22.9838 65.0788 23.1547 64.8144 23.4966C64.5688 23.7816 64.4554 24.1805 64.4554 24.6553V29.0241H64.4365Z" fill="#07182D"/>
<path d="M60.7716 20.6664H58.3914V18.7669H60.7716V20.6664ZM60.6771 29.0241H58.4669V21.6351H60.6771V29.0241Z" fill="#07182D"/>
<path d="M52.4219 29.0241H50.2117V18.7859H52.4219V24.2944L54.9155 21.6351H57.4846L54.481 24.7123L57.8435 29.0241H55.0099L52.403 25.6241V29.0241H52.4219Z" fill="#07182D"/>
<path d="M46.7925 29.0241H44.5823V21.6351H46.4147L46.6603 22.7558C47.057 21.8631 47.6993 21.4262 48.5871 21.4262C49.475 21.4262 49.1916 21.4642 49.4183 21.5212V23.5916C49.1161 23.4966 48.7949 23.4586 48.4738 23.4586C47.9826 23.4586 47.567 23.7056 47.2459 24.1805C46.9436 24.6363 46.7925 25.2252 46.7925 25.966V29.0431V29.0241Z" fill="#07182D"/>
<path d="M35.5334 25.3011C35.5334 23.9525 35.9113 22.9458 36.6858 22.281C37.347 21.7111 38.2537 21.4262 39.4061 21.4262C40.5584 21.4262 41.7296 21.8061 42.4097 22.5469C42.9953 23.2117 43.2976 24.1235 43.2976 25.3011C43.2976 26.4788 42.9197 27.6755 42.1452 28.3593C41.484 28.9482 40.5773 29.2331 39.4249 29.2331C38.2726 29.2331 37.1392 28.8532 36.4591 28.0934C35.8546 27.4096 35.5334 26.4788 35.5334 25.3011ZM37.8192 25.3011C37.8192 26.2129 37.9704 26.8777 38.2915 27.2576C38.556 27.5805 38.9338 27.7325 39.4438 27.7325C39.9539 27.7325 40.4639 27.5235 40.7095 27.1057C40.9362 26.7258 41.0684 26.1179 41.0684 25.2822C41.0684 24.4464 40.9173 23.7056 40.5962 23.3257C40.3506 23.0408 39.9539 22.8888 39.4438 22.8888C38.9338 22.8888 38.4237 23.0977 38.1782 23.4966C37.9515 23.8575 37.8381 24.4654 37.8381 25.2822L37.8192 25.3011Z" fill="#07182D"/>
<path d="M32.9643 21.6161H35.0612L33.0398 29.0051H30.3196L29.1672 23.6106L27.8449 29.0051H25.1813L23.1978 21.6161H25.4646L26.617 27.1816L27.9204 21.6161H30.584L31.7364 27.2006L33.0021 21.6161H32.9643Z" fill="#07182D"/>
<path d="M22.839 27.5235V29.0241C22.3856 29.1571 21.9322 29.2141 21.4977 29.2141C20.7043 29.2141 20.0809 28.9861 19.6653 28.5493C19.3064 28.1694 19.1175 27.6185 19.1175 26.9347V23.1357H18.0029V21.5971H19.1175L19.2497 19.8116H21.3088V21.5971H22.8201V23.1357H21.3088V27.0107C21.3088 27.2006 21.3655 27.3716 21.4977 27.4856C21.63 27.5805 21.8 27.6375 22.0267 27.6375C22.2534 27.6375 22.48 27.5995 22.839 27.5046V27.5235Z" fill="#07182D"/>
<path d="M15.0937 26.8777H17.3417C17.1528 27.6565 16.7372 28.2453 16.1138 28.6632C15.4904 29.0431 14.697 29.2521 13.7146 29.2521C12.7323 29.2521 11.5044 28.8722 10.7866 28.0934C10.1632 27.3906 9.84204 26.4788 9.84204 25.3581C9.84204 24.2374 10.2387 23.0218 11.0133 22.338C11.6744 21.7491 12.5623 21.4642 13.6391 21.4642C14.7159 21.4642 15.8871 21.8821 16.5294 22.7178C17.115 23.4776 17.4172 24.5414 17.4172 25.909H12.0523C12.1845 27.1247 12.7701 27.7325 13.8091 27.7325C14.8481 27.7325 14.4136 27.6565 14.6403 27.5235C14.867 27.3906 15.0181 27.1816 15.0748 26.9347L15.0937 26.8777ZM13.6013 22.8128C12.7134 22.8128 12.2034 23.4017 12.0712 24.5793H15.1692C15.1126 23.4017 14.5836 22.8128 13.6013 22.8128Z" fill="#07182D"/>
<path d="M6.47954 18.7859H8.50085V29.0241H6.06394L2.0402 21.7681V29.0241H0V18.7859H2.62582L6.47954 25.776V18.7859Z" fill="#07182D"/>
<path d="M28.6196 6.74318C28.6196 5.39454 29.0163 4.36882 29.8286 3.66601C30.4709 3.11516 31.2832 2.83023 32.2655 2.83023C33.2479 2.83023 34.3058 3.19114 34.948 3.93194C35.5714 4.61575 35.8737 5.5465 35.8737 6.74318C35.8737 7.93985 35.477 9.09854 34.7025 9.80135C34.0602 10.3712 33.2479 10.6561 32.2467 10.6561C31.2454 10.6561 30.2065 10.2762 29.5453 9.51642C28.9408 8.83261 28.6196 7.90186 28.6196 6.74318ZM30.0364 6.74318C30.0364 7.69292 30.282 8.41472 30.7543 8.90859C31.151 9.32648 31.661 9.53542 32.2655 9.53542C32.8701 9.53542 33.5312 9.26949 33.9279 8.71864C34.2869 8.22477 34.4569 7.55995 34.4569 6.72418C34.4569 5.88841 34.2302 5.03364 33.7579 4.53977C33.3801 4.14088 32.8701 3.93194 32.2655 3.93194C31.661 3.93194 30.9999 4.19786 30.6032 4.74872C30.2253 5.24258 30.0364 5.9074 30.0364 6.74318Z" fill="#07182D"/>
<path d="M26.0126 8.07281H27.505C27.3916 8.8706 27.0138 9.51642 26.3904 9.99129C25.8237 10.4282 25.1058 10.6561 24.2935 10.6561C23.4812 10.6561 22.3478 10.2762 21.7055 9.53542C21.1199 8.8516 20.8176 7.93985 20.8176 6.80016C20.8176 5.66047 21.1766 4.48279 21.8944 3.76098C22.4989 3.15315 23.3112 2.83023 24.2746 2.83023C25.2381 2.83023 25.9181 3.07717 26.5038 3.55204C27.0138 3.96993 27.3349 4.53977 27.4483 5.22359H25.9559C25.8615 4.82469 25.6726 4.52078 25.3703 4.29284C25.0869 4.0839 24.728 3.96993 24.2935 3.96993C23.6324 3.96993 23.1034 4.23585 22.7445 4.76771C22.4045 5.26158 22.2344 5.94539 22.2344 6.83815C22.2344 7.73091 22.4611 8.45271 22.9145 8.92758C23.2734 9.30748 23.7268 9.49743 24.2935 9.49743C24.8603 9.49743 25.1814 9.36447 25.5025 9.07954C25.767 8.83261 25.937 8.4907 26.0126 8.07281Z" fill="#07182D"/>
<path d="M18.2864 8.45271C18.2864 8.03482 18.0786 7.73091 17.6441 7.52196C17.3985 7.40799 16.8885 7.27503 16.1517 7.10408C15.245 6.91413 14.6027 6.61021 14.206 6.23031C13.8848 5.9074 13.7337 5.48951 13.7337 4.95766C13.7337 4.4258 14.0171 3.74199 14.5649 3.36209C15.0561 3.02018 15.7361 2.84923 16.5862 2.84923C17.4363 2.84923 18.173 3.05817 18.7209 3.49505C19.1931 3.87495 19.4765 4.36882 19.5898 4.99565H18.2108C18.0597 4.27384 17.5119 3.91294 16.5673 3.91294C15.6228 3.91294 15.6606 4.00791 15.415 4.19786C15.2072 4.34982 15.1127 4.55876 15.1127 4.8057C15.1127 5.05263 15.2261 5.33755 15.4528 5.48951C15.6795 5.64147 16.1517 5.79343 16.8318 5.94539C17.8708 6.17333 18.5886 6.45825 19.0042 6.78116C19.4576 7.14207 19.6843 7.67392 19.6843 8.33874C19.6843 9.00356 19.3821 9.66838 18.7775 10.0863C18.2297 10.4662 17.5119 10.6561 16.624 10.6561C15.7361 10.6561 14.8672 10.4282 14.3004 9.9533C13.8093 9.53542 13.5259 9.00356 13.4692 8.33874H14.8483C14.9994 9.17452 15.6039 9.5924 16.6429 9.5924C17.6819 9.5924 17.6441 9.47843 17.9652 9.2315C18.2108 9.04155 18.3242 8.77562 18.3242 8.4717L18.2864 8.45271Z" fill="#07182D"/>
<path d="M12.0902 1.82351H10.5601V0.208944H12.0902V1.82351ZM12.0146 10.4472H10.6545V3.05817H12.0146V10.4472Z" fill="#07182D"/>
<path d="M4.68491 9.44044C5.55389 9.44044 6.29063 9.15552 6.83846 8.60467C7.32962 8.1298 7.59409 7.54096 7.63187 6.83815H9.08646C9.04868 7.50297 8.84088 8.1298 8.46307 8.71864C8.08525 9.30748 7.55631 9.76336 6.91402 10.1053C6.23396 10.4662 5.45943 10.6561 4.64713 10.6561C3.11698 10.6561 1.92686 10.1243 1.07677 9.07954C0.358925 8.14879 0 6.89513 0 5.33755C0 3.77998 0.510051 2.14642 1.51126 1.19668C2.34246 0.398892 3.43812 0 4.77937 0C6.12061 0 7.10293 0.398892 7.95302 1.17768C8.65197 1.82351 9.02979 2.6023 9.10535 3.49505H7.65076C7.55631 2.75425 7.21628 2.16541 6.64955 1.74753C6.1395 1.38662 5.51611 1.21567 4.79826 1.21567C3.72148 1.21567 2.8714 1.59557 2.30467 2.37436C1.77573 3.07717 1.49237 4.0649 1.49237 5.33755C1.49237 6.61021 1.83241 7.78789 2.51247 8.52869C3.0792 9.13653 3.81594 9.45944 4.72269 9.45944L4.68491 9.44044Z" fill="#07182D"/>
</g>
<defs>
<clipPath id="clip0_138_3">
<rect width="78" height="48" fill="white"/>
</clipPath>
</defs>
</svg>
